<?xml version="1.0" encoding="utf-8"?>
<!-- Generator: Adobe Illustrator 23.0.6, SVG Export Plug-In . SVG Version: 6.00 Build 0)  -->
<svg version="1.1" id="Layer_2" xmlns="http://www.w3.org/2000/svg" xmlns:xlink="http://www.w3.org/1999/xlink" x="0px" y="0px"
	 viewBox="0 0 640.47 556.47" style="enable-background:new 0 0 640.47 556.47;" xml:space="preserve">
<style type="text/css">
	.st0{fill:none;stroke:#000000;stroke-width:1.036;}
	.st1{fill:#FF0000;}
	.st2{fill:none;}
	.st3{fill:none;stroke:#000000;}
</style>
<ellipse class="st0" cx="216.33" cy="301.89" rx="139.16" ry="89.6"/>
<path class="st1" d="M148.64,299.49c0,5.3,4.3,9.6,9.6,9.6c5.3,0,9.6-4.3,9.6-9.6c0-5.3-4.3-9.6-9.6-9.6
	C152.94,289.89,148.64,294.19,148.64,299.49z"/>
<rect class="st2" width="640.47" height="556.47"/>
<path class="st3" d="M558.89,71.89c-121.49,27-240.47,51.59-356.68,98.07c-53.55,21.42-118.67,47.48-151.15,98
	c-35.41,55.08,33.82,104.24,76.38,126.88c132.95,70.72,283.83,103.72,430.45,133.05"/>
<path class="st3" d="M393.54-3c-52.5,26.79-104.95,53.69-157.78,80.11C133.24,128.37-13.28,200.16,15.94,338.94
	C31.47,412.71,56,482.3,85.56,550.47"/>
<g>
	<path d="M380.17,300.09c1.04-1.45,2.16-2.17,3.36-2.17c1.1,0,2.06,0.47,2.88,1.41s1.23,2.23,1.23,3.86c0,1.91-0.63,3.44-1.9,4.61
		c-1.09,1-2.3,1.5-3.63,1.5c-0.62,0-1.26-0.11-1.9-0.34s-1.3-0.57-1.97-1.02v-11.12c0-1.22-0.03-1.97-0.09-2.25
		s-0.15-0.47-0.28-0.57s-0.28-0.15-0.47-0.15c-0.22,0-0.49,0.06-0.82,0.19l-0.16-0.41l3.22-1.31h0.53V300.09z M380.17,300.84v6.42
		c0.4,0.39,0.81,0.69,1.24,0.88s0.86,0.3,1.31,0.3c0.71,0,1.37-0.39,1.99-1.17s0.92-1.92,0.92-3.41c0-1.38-0.31-2.43-0.92-3.17
		s-1.31-1.11-2.09-1.11c-0.41,0-0.83,0.11-1.24,0.32C381.06,300.06,380.66,300.38,380.17,300.84z"/>
	<path d="M394.48,297.93c1.62,0,2.93,0.62,3.91,1.85c0.84,1.05,1.25,2.27,1.25,3.63c0,0.96-0.23,1.93-0.69,2.92s-1.1,1.73-1.9,2.23
		s-1.71,0.75-2.7,0.75c-1.62,0-2.9-0.64-3.86-1.93c-0.8-1.09-1.21-2.3-1.21-3.66c0-0.98,0.24-1.96,0.73-2.94s1.13-1.69,1.93-2.16
		S393.59,297.93,394.48,297.93z M394.12,298.69c-0.41,0-0.83,0.12-1.25,0.37s-0.76,0.68-1.01,1.29s-0.39,1.41-0.39,2.38
		c0,1.56,0.31,2.91,0.93,4.04s1.44,1.7,2.46,1.7c0.76,0,1.38-0.31,1.88-0.94s0.74-1.7,0.74-3.22c0-1.91-0.41-3.41-1.23-4.5
		C395.68,299.06,394.98,298.69,394.12,298.69z"/>
	<path d="M410.64,298.24v6.5c0,1.24,0.03,2,0.09,2.28s0.15,0.47,0.28,0.58s0.28,0.16,0.45,0.16c0.24,0,0.52-0.07,0.82-0.2l0.16,0.41
		l-3.21,1.32h-0.53v-2.27c-0.92,1-1.62,1.63-2.11,1.89s-1,0.39-1.54,0.39c-0.6,0-1.12-0.17-1.56-0.52s-0.75-0.79-0.92-1.34
		s-0.26-1.32-0.26-2.32v-4.79c0-0.51-0.05-0.86-0.16-1.05s-0.27-0.35-0.49-0.45s-0.6-0.15-1.17-0.15v-0.43h3.76v7.18
		c0,1,0.17,1.66,0.52,1.97s0.77,0.47,1.26,0.47c0.34,0,0.72-0.11,1.14-0.32s0.93-0.61,1.52-1.21v-6.08c0-0.61-0.11-1.02-0.33-1.24
		s-0.69-0.33-1.39-0.35v-0.43H410.64z"/>
	<path d="M416.36,300.2c1.26-1.52,2.46-2.27,3.6-2.27c0.59,0,1.09,0.15,1.51,0.44s0.76,0.78,1.01,1.45
		c0.17,0.47,0.26,1.19,0.26,2.16v4.58c0,0.68,0.05,1.14,0.16,1.38c0.09,0.2,0.22,0.35,0.42,0.46s0.54,0.16,1.06,0.16v0.42h-5.31
		v-0.42h0.22c0.5,0,0.85-0.08,1.05-0.23s0.34-0.38,0.42-0.67c0.03-0.12,0.05-0.48,0.05-1.1v-4.39c0-0.98-0.13-1.69-0.38-2.13
		s-0.68-0.66-1.28-0.66c-0.93,0-1.86,0.51-2.78,1.52v5.66c0,0.73,0.04,1.18,0.13,1.35c0.11,0.23,0.26,0.39,0.45,0.5
		s0.58,0.16,1.17,0.16v0.42h-5.31v-0.42h0.23c0.55,0,0.92-0.14,1.11-0.42s0.29-0.81,0.29-1.59v-3.98c0-1.29-0.03-2.07-0.09-2.36
		s-0.15-0.47-0.27-0.57s-0.28-0.15-0.49-0.15c-0.22,0-0.48,0.06-0.79,0.18l-0.18-0.42l3.23-1.31h0.5V300.2z"/>
	<path d="M432.81,307.77c-0.52,0.55-1.04,0.94-1.54,1.18s-1.04,0.36-1.62,0.36c-1.17,0-2.2-0.49-3.07-1.47s-1.31-2.24-1.31-3.78
		s0.48-2.95,1.45-4.22s2.21-1.92,3.74-1.92c0.95,0,1.73,0.3,2.34,0.9v-1.98c0-1.23-0.03-1.98-0.09-2.26s-0.15-0.47-0.28-0.57
		s-0.28-0.15-0.47-0.15c-0.2,0-0.47,0.06-0.81,0.19l-0.15-0.41l3.2-1.31h0.53v12.41c0,1.26,0.03,2.03,0.09,2.3s0.15,0.47,0.28,0.58
		s0.28,0.16,0.45,0.16c0.21,0,0.49-0.07,0.84-0.2l0.13,0.41l-3.19,1.32h-0.54V307.77z M432.81,306.95v-5.53
		c-0.05-0.53-0.19-1.02-0.42-1.45s-0.54-0.77-0.93-0.99s-0.76-0.33-1.13-0.33c-0.69,0-1.3,0.31-1.84,0.93
		c-0.71,0.81-1.07,2-1.07,3.56c0,1.58,0.34,2.79,1.03,3.63s1.45,1.26,2.3,1.26C431.46,308.02,432.15,307.66,432.81,306.95z"/>
	<path d="M448.48,297.93c1.62,0,2.93,0.62,3.91,1.85c0.84,1.05,1.25,2.27,1.25,3.63c0,0.96-0.23,1.93-0.69,2.92s-1.1,1.73-1.9,2.23
		s-1.71,0.75-2.7,0.75c-1.62,0-2.9-0.64-3.86-1.93c-0.8-1.09-1.21-2.3-1.21-3.66c0-0.98,0.24-1.96,0.73-2.94s1.13-1.69,1.93-2.16
		S447.59,297.93,448.48,297.93z M448.12,298.69c-0.41,0-0.83,0.12-1.25,0.37s-0.76,0.68-1.01,1.29s-0.39,1.41-0.39,2.38
		c0,1.56,0.31,2.91,0.93,4.04s1.44,1.7,2.46,1.7c0.76,0,1.38-0.31,1.88-0.94s0.74-1.7,0.74-3.22c0-1.91-0.41-3.41-1.23-4.5
		C449.68,299.06,448.98,298.69,448.12,298.69z"/>
	<path d="M458.37,297.93v2.41c0.9-1.61,1.82-2.41,2.77-2.41c0.43,0,0.79,0.13,1.07,0.39s0.42,0.56,0.42,0.91
		c0,0.3-0.1,0.56-0.3,0.77s-0.45,0.32-0.73,0.32c-0.27,0-0.58-0.13-0.92-0.4s-0.59-0.4-0.76-0.4c-0.14,0-0.29,0.08-0.46,0.23
		c-0.35,0.32-0.71,0.85-1.09,1.58v5.14c0,0.59,0.07,1.04,0.22,1.35c0.1,0.21,0.28,0.39,0.54,0.53s0.63,0.21,1.11,0.21v0.42h-5.5
		v-0.42c0.55,0,0.95-0.09,1.22-0.26c0.2-0.12,0.33-0.32,0.41-0.6c0.04-0.13,0.06-0.51,0.06-1.14v-4.16c0-1.25-0.03-1.99-0.08-2.23
		s-0.14-0.41-0.28-0.52s-0.31-0.16-0.51-0.16c-0.24,0-0.52,0.06-0.82,0.18l-0.12-0.42l3.25-1.31H458.37z"/>
	<path d="M466.17,300.09c1.04-1.45,2.16-2.17,3.36-2.17c1.1,0,2.06,0.47,2.88,1.41s1.23,2.23,1.23,3.86c0,1.91-0.63,3.44-1.9,4.61
		c-1.09,1-2.3,1.5-3.63,1.5c-0.62,0-1.26-0.11-1.9-0.34s-1.3-0.57-1.97-1.02v-11.12c0-1.22-0.03-1.97-0.09-2.25
		s-0.15-0.47-0.28-0.57s-0.28-0.15-0.47-0.15c-0.22,0-0.49,0.06-0.82,0.19l-0.16-0.41l3.22-1.31h0.53V300.09z M466.17,300.84v6.42
		c0.4,0.39,0.81,0.69,1.24,0.88s0.86,0.3,1.31,0.3c0.71,0,1.37-0.39,1.99-1.17s0.92-1.92,0.92-3.41c0-1.38-0.31-2.43-0.92-3.17
		s-1.31-1.11-2.09-1.11c-0.41,0-0.83,0.11-1.24,0.32C467.05,300.06,466.65,300.38,466.17,300.84z"/>
	<path d="M478.93,297.93v8.62c0,0.67,0.05,1.12,0.15,1.34s0.24,0.39,0.43,0.5s0.54,0.16,1.05,0.16v0.42h-5.21v-0.42
		c0.52,0,0.88-0.05,1.05-0.15s0.32-0.27,0.43-0.5s0.16-0.68,0.16-1.35v-4.14c0-1.16-0.04-1.92-0.11-2.26
		c-0.05-0.25-0.14-0.42-0.26-0.52s-0.28-0.15-0.48-0.15c-0.22,0-0.48,0.06-0.8,0.18l-0.16-0.42l3.23-1.31H478.93z M477.95,292.31
		c0.33,0,0.61,0.12,0.84,0.35s0.35,0.51,0.35,0.84s-0.12,0.61-0.35,0.84s-0.51,0.35-0.84,0.35s-0.61-0.12-0.84-0.35
		s-0.35-0.52-0.35-0.84s0.12-0.61,0.35-0.84S477.62,292.31,477.95,292.31z"/>
	<path d="M485.01,294.72v3.53h2.51v0.82h-2.51v6.96c0,0.7,0.1,1.16,0.3,1.41s0.46,0.36,0.77,0.36c0.26,0,0.51-0.08,0.75-0.24
		s0.43-0.4,0.56-0.71h0.46c-0.27,0.77-0.66,1.34-1.16,1.73s-1.02,0.58-1.55,0.58c-0.36,0-0.71-0.1-1.05-0.3s-0.6-0.48-0.76-0.86
		s-0.25-0.94-0.25-1.72v-7.22h-1.7v-0.39c0.43-0.17,0.87-0.46,1.32-0.87s0.85-0.9,1.2-1.46c0.18-0.3,0.43-0.84,0.75-1.63H485.01z"/>
	<path d="M495.5,297.93v3.66h-0.39c-0.3-1.15-0.68-1.93-1.14-2.34s-1.06-0.62-1.78-0.62c-0.55,0-0.99,0.14-1.32,0.43
		s-0.5,0.61-0.5,0.96c0,0.44,0.12,0.81,0.38,1.12c0.24,0.32,0.73,0.66,1.48,1.02l1.71,0.83c1.59,0.77,2.38,1.79,2.38,3.06
		c0,0.98-0.37,1.76-1.11,2.36s-1.56,0.9-2.48,0.9c-0.66,0-1.41-0.12-2.25-0.35c-0.26-0.08-0.47-0.12-0.63-0.12
		c-0.18,0-0.32,0.1-0.42,0.3h-0.39v-3.83h0.39c0.22,1.09,0.64,1.92,1.25,2.47s1.31,0.83,2.07,0.83c0.54,0,0.98-0.16,1.32-0.47
		s0.51-0.7,0.51-1.14c0-0.54-0.19-0.99-0.57-1.36s-1.13-0.83-2.27-1.39s-1.88-1.07-2.23-1.52c-0.35-0.45-0.53-1.01-0.53-1.69
		c0-0.88,0.3-1.62,0.91-2.21s1.39-0.89,2.35-0.89c0.42,0,0.93,0.09,1.54,0.27c0.4,0.12,0.66,0.18,0.8,0.18
		c0.12,0,0.22-0.03,0.29-0.08s0.15-0.18,0.25-0.36H495.5z"/>
	<path d="M509.98,307.43c-1.1,0.85-1.79,1.34-2.07,1.48c-0.42,0.2-0.87,0.29-1.35,0.29c-0.74,0-1.35-0.25-1.83-0.76
		s-0.72-1.18-0.72-2c0-0.52,0.12-0.98,0.35-1.36c0.32-0.53,0.88-1.03,1.67-1.5s2.11-1.04,3.96-1.71v-0.42c0-1.07-0.17-1.8-0.51-2.2
		s-0.83-0.6-1.48-0.6c-0.49,0-0.88,0.13-1.17,0.4c-0.3,0.27-0.45,0.57-0.45,0.91l0.02,0.68c0,0.36-0.09,0.64-0.28,0.83
		s-0.42,0.29-0.72,0.29c-0.29,0-0.53-0.1-0.71-0.3s-0.28-0.48-0.28-0.83c0-0.67,0.34-1.29,1.03-1.85s1.65-0.84,2.89-0.84
		c0.95,0,1.73,0.16,2.34,0.48c0.46,0.24,0.8,0.62,1.02,1.14c0.14,0.34,0.21,1.02,0.21,2.06v3.64c0,1.02,0.02,1.65,0.06,1.88
		c0.04,0.23,0.1,0.38,0.19,0.46s0.19,0.12,0.31,0.12c0.12,0,0.23-0.03,0.33-0.08c0.16-0.1,0.48-0.39,0.95-0.86v0.66
		c-0.88,1.17-1.71,1.76-2.51,1.76c-0.38,0-0.69-0.13-0.91-0.4S509.99,308.07,509.98,307.43z M509.98,306.67v-4.09
		c-1.18,0.47-1.94,0.8-2.29,1c-0.62,0.34-1.06,0.7-1.32,1.08s-0.4,0.79-0.4,1.23c0,0.56,0.17,1.03,0.5,1.4s0.72,0.56,1.16,0.56
		C508.23,307.84,509.01,307.45,509.98,306.67z"/>
	<path d="M517.69,297.93v2.41c0.9-1.61,1.82-2.41,2.77-2.41c0.43,0,0.79,0.13,1.07,0.39s0.42,0.56,0.42,0.91
		c0,0.3-0.1,0.56-0.3,0.77s-0.45,0.32-0.73,0.32c-0.27,0-0.58-0.13-0.92-0.4s-0.59-0.4-0.76-0.4c-0.14,0-0.29,0.08-0.46,0.23
		c-0.35,0.32-0.71,0.85-1.09,1.58v5.14c0,0.59,0.07,1.04,0.22,1.35c0.1,0.21,0.28,0.39,0.54,0.53s0.63,0.21,1.11,0.21v0.42h-5.5
		v-0.42c0.55,0,0.95-0.09,1.22-0.26c0.2-0.12,0.33-0.32,0.41-0.6c0.04-0.13,0.06-0.51,0.06-1.14v-4.16c0-1.25-0.03-1.99-0.08-2.23
		s-0.14-0.41-0.28-0.52s-0.31-0.16-0.51-0.16c-0.24,0-0.52,0.06-0.82,0.18l-0.12-0.42l3.25-1.31H517.69z"/>
	<path d="M524.35,302.29c-0.01,1.59,0.38,2.84,1.16,3.75s1.7,1.36,2.75,1.36c0.7,0,1.31-0.19,1.83-0.58s0.96-1.05,1.31-1.99
		l0.36,0.23c-0.16,1.07-0.64,2.04-1.43,2.92s-1.78,1.32-2.96,1.32c-1.29,0-2.39-0.5-3.31-1.51s-1.38-2.35-1.38-4.05
		c0-1.84,0.47-3.27,1.41-4.29s2.12-1.54,3.54-1.54c1.2,0,2.19,0.4,2.96,1.19s1.16,1.85,1.16,3.18H524.35z M524.35,301.61h4.97
		c-0.04-0.69-0.12-1.17-0.25-1.45c-0.2-0.44-0.49-0.78-0.87-1.03s-0.79-0.38-1.21-0.38c-0.65,0-1.23,0.25-1.74,0.76
		S524.43,300.71,524.35,301.61z"/>
	<path d="M541,302.29c-0.01,1.59,0.38,2.84,1.16,3.75s1.7,1.36,2.75,1.36c0.7,0,1.31-0.19,1.83-0.58s0.96-1.05,1.31-1.99l0.36,0.23
		c-0.16,1.07-0.64,2.04-1.43,2.92s-1.78,1.32-2.96,1.32c-1.29,0-2.39-0.5-3.31-1.51s-1.38-2.35-1.38-4.05
		c0-1.84,0.47-3.27,1.41-4.29s2.12-1.54,3.54-1.54c1.2,0,2.19,0.4,2.96,1.19s1.16,1.85,1.16,3.18H541z M541,301.61h4.97
		c-0.04-0.69-0.12-1.17-0.25-1.45c-0.2-0.44-0.49-0.78-0.87-1.03s-0.79-0.38-1.21-0.38c-0.65,0-1.23,0.25-1.74,0.76
		S541.09,300.71,541,301.61z"/>
	<path d="M553.54,292.31v14.24c0,0.67,0.05,1.12,0.15,1.34s0.25,0.38,0.45,0.5s0.58,0.17,1.14,0.17v0.42h-5.26v-0.42
		c0.49,0,0.83-0.05,1.01-0.15s0.32-0.27,0.42-0.5s0.15-0.68,0.15-1.35v-9.75c0-1.21-0.03-1.96-0.08-2.23s-0.14-0.47-0.26-0.57
		s-0.28-0.15-0.46-0.15c-0.2,0-0.46,0.06-0.77,0.19l-0.2-0.41l3.2-1.31H553.54z"/>
	<path d="M560.21,292.31v14.24c0,0.67,0.05,1.12,0.15,1.34s0.25,0.38,0.45,0.5s0.58,0.17,1.14,0.17v0.42h-5.26v-0.42
		c0.49,0,0.83-0.05,1.01-0.15s0.32-0.27,0.42-0.5s0.15-0.68,0.15-1.35v-9.75c0-1.21-0.03-1.96-0.08-2.23s-0.14-0.47-0.26-0.57
		s-0.28-0.15-0.46-0.15c-0.2,0-0.46,0.06-0.77,0.19l-0.2-0.41l3.2-1.31H560.21z"/>
	<path d="M566.89,297.93v8.62c0,0.67,0.05,1.12,0.15,1.34s0.24,0.39,0.43,0.5s0.54,0.16,1.05,0.16v0.42h-5.21v-0.42
		c0.52,0,0.88-0.05,1.05-0.15s0.32-0.27,0.43-0.5s0.16-0.68,0.16-1.35v-4.14c0-1.16-0.04-1.92-0.11-2.26
		c-0.05-0.25-0.14-0.42-0.26-0.52s-0.28-0.15-0.48-0.15c-0.22,0-0.48,0.06-0.8,0.18l-0.16-0.42l3.23-1.31H566.89z M565.92,292.31
		c0.33,0,0.61,0.12,0.84,0.35s0.35,0.51,0.35,0.84s-0.12,0.61-0.35,0.84s-0.51,0.35-0.84,0.35s-0.61-0.12-0.84-0.35
		s-0.35-0.52-0.35-0.84s0.12-0.61,0.35-0.84S565.58,292.31,565.92,292.31z"/>
	<path d="M569.08,299.31l3.3-1.34h0.45v2.51c0.55-0.95,1.11-1.61,1.67-1.99s1.15-0.57,1.76-0.57c1.08,0,1.98,0.42,2.7,1.27
		c0.88,1.03,1.32,2.38,1.32,4.03c0,1.85-0.53,3.38-1.59,4.59c-0.88,0.99-1.98,1.49-3.3,1.49c-0.58,0-1.08-0.08-1.5-0.25
		c-0.31-0.12-0.66-0.35-1.05-0.7v3.27c0,0.73,0.04,1.2,0.13,1.4s0.25,0.36,0.47,0.47s0.63,0.18,1.21,0.18v0.43h-5.62v-0.43h0.29
		c0.43,0.01,0.8-0.07,1.1-0.25c0.15-0.09,0.26-0.22,0.35-0.42s0.12-0.68,0.12-1.46v-10.15c0-0.7-0.03-1.14-0.09-1.32
		s-0.16-0.33-0.3-0.42s-0.32-0.14-0.56-0.14c-0.19,0-0.43,0.05-0.71,0.16L569.08,299.31z M572.83,301.17v4.01
		c0,0.87,0.04,1.44,0.11,1.71c0.11,0.45,0.38,0.85,0.8,1.2s0.96,0.52,1.61,0.52c0.78,0,1.41-0.3,1.9-0.91
		c0.63-0.8,0.95-1.92,0.95-3.36c0-1.64-0.36-2.9-1.08-3.79c-0.5-0.61-1.09-0.91-1.78-0.91c-0.38,0-0.75,0.09-1.11,0.28
		C573.94,300.05,573.48,300.47,572.83,301.17z"/>
	<path d="M584.97,294.72v3.53h2.51v0.82h-2.51v6.96c0,0.7,0.1,1.16,0.3,1.41s0.46,0.36,0.77,0.36c0.26,0,0.51-0.08,0.75-0.24
		s0.43-0.4,0.56-0.71h0.46c-0.27,0.77-0.66,1.34-1.16,1.73s-1.02,0.58-1.55,0.58c-0.36,0-0.71-0.1-1.05-0.3s-0.6-0.48-0.76-0.86
		s-0.25-0.94-0.25-1.72v-7.22h-1.7v-0.39c0.43-0.17,0.87-0.46,1.32-0.87s0.85-0.9,1.2-1.46c0.18-0.3,0.43-0.84,0.75-1.63H584.97z"/>
	<path d="M592.22,297.93v8.62c0,0.67,0.05,1.12,0.15,1.34s0.24,0.39,0.43,0.5s0.54,0.16,1.05,0.16v0.42h-5.21v-0.42
		c0.52,0,0.88-0.05,1.05-0.15s0.32-0.27,0.43-0.5s0.16-0.68,0.16-1.35v-4.14c0-1.16-0.04-1.92-0.11-2.26
		c-0.05-0.25-0.14-0.42-0.26-0.52s-0.28-0.15-0.48-0.15c-0.22,0-0.48,0.06-0.8,0.18l-0.16-0.42l3.23-1.31H592.22z M591.25,292.31
		c0.33,0,0.61,0.12,0.84,0.35s0.35,0.51,0.35,0.84s-0.12,0.61-0.35,0.84s-0.51,0.35-0.84,0.35s-0.61-0.12-0.84-0.35
		s-0.35-0.52-0.35-0.84s0.12-0.61,0.35-0.84S590.92,292.31,591.25,292.31z"/>
	<path d="M604.31,304.9c-0.29,1.41-0.86,2.5-1.7,3.26s-1.78,1.14-2.8,1.14c-1.22,0-2.28-0.51-3.19-1.54s-1.36-2.41-1.36-4.15
		c0-1.69,0.5-3.06,1.51-4.11s2.21-1.58,3.62-1.58c1.05,0,1.92,0.28,2.6,0.84s1.02,1.14,1.02,1.74c0,0.3-0.1,0.54-0.29,0.72
		s-0.46,0.28-0.8,0.28c-0.46,0-0.81-0.15-1.04-0.45c-0.13-0.16-0.22-0.48-0.26-0.94s-0.2-0.81-0.47-1.05
		c-0.27-0.23-0.65-0.35-1.14-0.35c-0.78,0-1.41,0.29-1.89,0.87c-0.63,0.77-0.95,1.78-0.95,3.04c0,1.28,0.31,2.41,0.94,3.39
		s1.48,1.47,2.55,1.47c0.77,0,1.45-0.26,2.06-0.79c0.43-0.36,0.85-1.01,1.25-1.96L604.31,304.9z"/>
	<path d="M611.92,307.43c-1.1,0.85-1.79,1.34-2.07,1.48c-0.42,0.2-0.87,0.29-1.35,0.29c-0.74,0-1.35-0.25-1.83-0.76
		s-0.72-1.18-0.72-2c0-0.52,0.12-0.98,0.35-1.36c0.32-0.53,0.88-1.03,1.67-1.5s2.11-1.04,3.96-1.71v-0.42c0-1.07-0.17-1.8-0.51-2.2
		s-0.83-0.6-1.48-0.6c-0.49,0-0.88,0.13-1.17,0.4c-0.3,0.27-0.45,0.57-0.45,0.91l0.02,0.68c0,0.36-0.09,0.64-0.28,0.83
		s-0.42,0.29-0.72,0.29c-0.29,0-0.53-0.1-0.71-0.3s-0.28-0.48-0.28-0.83c0-0.67,0.34-1.29,1.03-1.85s1.65-0.84,2.89-0.84
		c0.95,0,1.73,0.16,2.34,0.48c0.46,0.24,0.8,0.62,1.02,1.14c0.14,0.34,0.21,1.02,0.21,2.06v3.64c0,1.02,0.02,1.65,0.06,1.88
		s0.1,0.38,0.19,0.46s0.19,0.12,0.31,0.12c0.12,0,0.23-0.03,0.33-0.08c0.16-0.1,0.48-0.39,0.95-0.86v0.66
		c-0.88,1.17-1.71,1.76-2.51,1.76c-0.38,0-0.69-0.13-0.91-0.4S611.93,308.07,611.92,307.43z M611.92,306.67v-4.09
		c-1.18,0.47-1.94,0.8-2.29,1c-0.62,0.34-1.06,0.7-1.32,1.08s-0.4,0.79-0.4,1.23c0,0.56,0.17,1.03,0.5,1.4s0.72,0.56,1.16,0.56
		C610.17,307.84,610.95,307.45,611.92,306.67z"/>
	<path d="M620.18,292.31v14.24c0,0.67,0.05,1.12,0.15,1.34s0.25,0.38,0.45,0.5s0.58,0.17,1.14,0.17v0.42h-5.26v-0.42
		c0.49,0,0.83-0.05,1.01-0.15s0.32-0.27,0.42-0.5s0.15-0.68,0.15-1.35v-9.75c0-1.21-0.03-1.96-0.08-2.23s-0.14-0.47-0.26-0.57
		s-0.28-0.15-0.46-0.15c-0.2,0-0.46,0.06-0.77,0.19l-0.2-0.41l3.2-1.31H620.18z"/>
</g>
<g>
	<path d="M246.99,129.48l1.72,6.27c0.33,1.2,0.56,1.92,0.69,2.17c0.13,0.25,0.27,0.41,0.42,0.49s0.31,0.08,0.48,0.04
		c0.23-0.06,0.48-0.2,0.74-0.41l0.27,0.35l-2.74,2.13l-0.51,0.14l-0.6-2.19c-0.62,1.21-1.14,2-1.53,2.38
		c-0.4,0.38-0.86,0.64-1.38,0.78c-0.58,0.16-1.13,0.13-1.65-0.09c-0.52-0.22-0.93-0.57-1.24-1.05c-0.31-0.48-0.6-1.21-0.86-2.17
		l-1.27-4.62c-0.13-0.49-0.28-0.81-0.44-0.97s-0.35-0.26-0.59-0.31c-0.24-0.04-0.62,0.01-1.16,0.17l-0.12-0.42l3.63-1l1.9,6.93
		c0.27,0.96,0.61,1.55,1.03,1.76s0.86,0.25,1.34,0.12c0.32-0.09,0.66-0.29,1.02-0.61s0.74-0.84,1.14-1.57l-1.61-5.86
		c-0.16-0.59-0.38-0.96-0.65-1.1s-0.75-0.14-1.43,0.03l-0.11-0.42L246.99,129.48z"/>
	<path d="M253.02,129.85c0.81-1.79,1.77-2.84,2.87-3.15c0.56-0.16,1.09-0.15,1.57,0.02c0.48,0.17,0.94,0.55,1.36,1.13
		c0.29,0.41,0.56,1.08,0.82,2.01l1.21,4.42c0.18,0.66,0.35,1.08,0.52,1.29c0.13,0.17,0.31,0.28,0.52,0.33
		c0.21,0.05,0.57,0.01,1.07-0.12l0.11,0.41l-5.12,1.41l-0.11-0.41l0.21-0.06c0.48-0.13,0.8-0.3,0.95-0.5
		c0.15-0.2,0.23-0.45,0.22-0.76c0-0.12-0.08-0.48-0.25-1.07l-1.17-4.24c-0.26-0.94-0.57-1.59-0.93-1.95
		c-0.36-0.36-0.83-0.46-1.41-0.3c-0.9,0.25-1.65,0.98-2.27,2.21l1.5,5.46c0.19,0.7,0.35,1.12,0.48,1.26
		c0.17,0.19,0.35,0.31,0.57,0.36c0.21,0.05,0.6,0,1.17-0.16l0.11,0.41l-5.12,1.41l-0.11-0.41l0.23-0.06
		c0.53-0.14,0.85-0.38,0.96-0.69s0.06-0.85-0.14-1.61l-1.06-3.84c-0.34-1.24-0.58-1.99-0.71-2.25c-0.13-0.25-0.27-0.42-0.41-0.48
		c-0.14-0.07-0.31-0.07-0.51-0.02c-0.21,0.06-0.45,0.18-0.71,0.38l-0.28-0.36l2.77-2.12l0.49-0.13L253.02,129.85z"/>
	<path d="M264.39,126.62c0.62-1.67,1.51-2.66,2.67-2.98c1.06-0.29,2.11-0.09,3.15,0.6c1.04,0.69,1.78,1.82,2.21,3.4
		c0.5,1.84,0.3,3.49-0.61,4.94c-0.78,1.25-1.82,2.06-3.11,2.41c-0.6,0.17-1.24,0.23-1.93,0.18s-1.41-0.2-2.17-0.46l-2.95-10.72
		c-0.32-1.17-0.55-1.89-0.68-2.15c-0.13-0.26-0.27-0.42-0.42-0.48c-0.15-0.06-0.31-0.07-0.49-0.02c-0.21,0.06-0.46,0.19-0.74,0.4
		l-0.27-0.35l2.76-2.12l0.51-0.14L264.39,126.62z M264.58,127.34l1.7,6.19c0.49,0.27,0.96,0.45,1.43,0.53s0.91,0.06,1.34-0.06
		c0.69-0.19,1.22-0.74,1.61-1.66c0.38-0.92,0.38-2.09-0.02-3.53c-0.36-1.33-0.94-2.26-1.73-2.81c-0.79-0.55-1.56-0.72-2.31-0.51
		c-0.4,0.11-0.77,0.32-1.11,0.63C265.23,126.35,264.93,126.76,264.58,127.34z"/>
	<path d="M277.61,120.73c1.57-0.43,2.99-0.18,4.26,0.75c1.09,0.79,1.81,1.85,2.17,3.17c0.26,0.93,0.29,1.93,0.11,3
		s-0.6,1.96-1.25,2.65c-0.65,0.7-1.45,1.18-2.41,1.44c-1.56,0.43-2.97,0.15-4.23-0.84c-1.06-0.83-1.77-1.9-2.13-3.21
		c-0.26-0.95-0.29-1.96-0.07-3.02c0.21-1.07,0.64-1.93,1.29-2.59C276,121.42,276.75,120.97,277.61,120.73z M277.46,121.56
		c-0.4,0.11-0.77,0.34-1.1,0.69c-0.34,0.35-0.55,0.85-0.63,1.52c-0.08,0.66,0,1.46,0.26,2.4c0.41,1.51,1.07,2.72,1.97,3.65
		c0.9,0.93,1.84,1.26,2.82,0.99c0.73-0.2,1.25-0.67,1.56-1.4c0.31-0.73,0.26-1.83-0.14-3.3c-0.51-1.84-1.3-3.18-2.38-4.01
		C279.07,121.51,278.29,121.33,277.46,121.56z"/>
	<path d="M293.27,116.75l1.72,6.27c0.33,1.2,0.56,1.92,0.69,2.17s0.27,0.41,0.42,0.48s0.31,0.08,0.48,0.04
		c0.23-0.06,0.48-0.2,0.74-0.41l0.27,0.35l-2.74,2.13l-0.51,0.14l-0.6-2.19c-0.62,1.21-1.13,2-1.53,2.38
		c-0.4,0.38-0.86,0.64-1.38,0.78c-0.58,0.16-1.13,0.13-1.65-0.09c-0.52-0.22-0.93-0.57-1.24-1.05c-0.31-0.48-0.6-1.21-0.86-2.17
		l-1.27-4.62c-0.13-0.49-0.28-0.81-0.44-0.97c-0.16-0.16-0.35-0.26-0.59-0.31c-0.23-0.04-0.62,0.01-1.16,0.17l-0.11-0.42l3.63-1
		l1.9,6.93c0.26,0.96,0.61,1.55,1.02,1.76s0.86,0.25,1.34,0.12c0.32-0.09,0.66-0.29,1.02-0.61s0.74-0.84,1.14-1.57l-1.61-5.86
		c-0.16-0.59-0.38-0.96-0.65-1.1s-0.75-0.14-1.43,0.04l-0.11-0.42L293.27,116.75z"/>
	<path d="M299.31,117.12c0.81-1.79,1.77-2.84,2.87-3.15c0.57-0.16,1.09-0.15,1.57,0.02s0.94,0.55,1.36,1.13
		c0.29,0.41,0.56,1.08,0.82,2.01l1.21,4.42c0.18,0.66,0.35,1.08,0.52,1.29c0.13,0.17,0.31,0.28,0.52,0.33
		c0.21,0.05,0.57,0.01,1.07-0.12l0.11,0.41l-5.12,1.41l-0.11-0.41l0.21-0.06c0.48-0.13,0.8-0.3,0.95-0.5s0.23-0.45,0.22-0.76
		c0-0.12-0.08-0.48-0.25-1.08l-1.16-4.24c-0.26-0.94-0.57-1.59-0.93-1.95c-0.36-0.36-0.83-0.46-1.41-0.3
		c-0.9,0.25-1.65,0.98-2.27,2.21l1.5,5.46c0.19,0.7,0.35,1.12,0.48,1.26c0.17,0.19,0.35,0.31,0.57,0.36c0.21,0.05,0.6,0,1.17-0.16
		l0.11,0.41l-5.12,1.41l-0.11-0.41l0.23-0.06c0.53-0.15,0.85-0.38,0.96-0.69c0.11-0.32,0.06-0.85-0.14-1.61l-1.06-3.84
		c-0.34-1.24-0.58-1.99-0.71-2.25c-0.13-0.25-0.27-0.42-0.41-0.48c-0.14-0.07-0.31-0.07-0.51-0.02c-0.21,0.06-0.45,0.18-0.71,0.38
		l-0.28-0.36l2.77-2.12l0.49-0.13L299.31,117.12z"/>
	<path d="M317.18,120.06c-0.36,0.67-0.75,1.18-1.17,1.54c-0.42,0.36-0.91,0.62-1.46,0.77c-1.13,0.31-2.25,0.11-3.35-0.6
		c-1.1-0.71-1.86-1.81-2.27-3.3c-0.41-1.48-0.31-2.97,0.28-4.46c0.59-1.49,1.63-2.43,3.1-2.84c0.91-0.25,1.75-0.17,2.5,0.25
		l-0.52-1.91c-0.33-1.18-0.55-1.9-0.68-2.16c-0.13-0.26-0.27-0.42-0.42-0.48c-0.15-0.06-0.31-0.07-0.49-0.02
		c-0.2,0.05-0.44,0.19-0.73,0.4l-0.26-0.36l2.74-2.11l0.51-0.14l3.29,11.97c0.33,1.21,0.56,1.95,0.69,2.2
		c0.13,0.25,0.27,0.41,0.43,0.49s0.31,0.08,0.48,0.04c0.2-0.06,0.46-0.19,0.76-0.42l0.23,0.36l-2.72,2.12l-0.52,0.14L317.18,120.06z
		 M316.96,119.27l-1.46-5.33c-0.19-0.5-0.45-0.93-0.79-1.29c-0.34-0.36-0.73-0.6-1.16-0.71s-0.83-0.12-1.18-0.02
		c-0.66,0.18-1.17,0.64-1.53,1.38c-0.47,0.97-0.5,2.21-0.08,3.72c0.42,1.52,1.07,2.6,1.96,3.22c0.88,0.63,1.73,0.83,2.55,0.61
		C315.94,120.66,316.51,120.13,316.96,119.27z"/>
	<path d="M324.23,109.35l2.83-2.16l0.43-0.12l0.66,2.42c0.29-1.06,0.65-1.84,1.08-2.36c0.44-0.51,0.96-0.85,1.55-1.02
		c1.04-0.29,2.02-0.12,2.93,0.51c1.12,0.76,1.91,1.94,2.35,3.54c0.49,1.79,0.38,3.4-0.32,4.85c-0.58,1.19-1.51,1.96-2.79,2.31
		c-0.56,0.15-1.06,0.21-1.51,0.16c-0.33-0.03-0.73-0.16-1.2-0.4l0.87,3.15c0.19,0.71,0.36,1.15,0.5,1.31
		c0.14,0.17,0.33,0.28,0.58,0.33c0.25,0.05,0.65,0,1.22-0.15l0.12,0.42l-5.42,1.49l-0.12-0.42l0.28-0.08c0.42-0.11,0.75-0.28,1-0.53
		c0.12-0.12,0.19-0.29,0.22-0.49c0.03-0.21-0.06-0.69-0.27-1.44l-2.69-9.79c-0.18-0.67-0.33-1.09-0.44-1.25s-0.24-0.27-0.4-0.33
		c-0.16-0.05-0.35-0.05-0.57,0.01c-0.18,0.05-0.4,0.17-0.65,0.35L324.23,109.35z M328.34,110.15l1.06,3.86
		c0.23,0.84,0.42,1.38,0.56,1.62c0.23,0.41,0.59,0.72,1.09,0.94s1.06,0.24,1.69,0.07c0.75-0.21,1.28-0.67,1.59-1.38
		c0.4-0.94,0.41-2.1,0.02-3.49c-0.43-1.58-1.12-2.7-2.04-3.36c-0.64-0.46-1.3-0.59-1.96-0.41c-0.36,0.1-0.7,0.29-1,0.57
		C329.12,108.77,328.78,109.3,328.34,110.15z"/>
	<path d="M344.57,112.18c-0.84,1.11-1.37,1.77-1.61,1.97c-0.35,0.3-0.76,0.51-1.22,0.64c-0.72,0.2-1.37,0.11-1.97-0.25
		c-0.6-0.36-1.01-0.94-1.23-1.74c-0.14-0.5-0.15-0.97-0.02-1.4c0.17-0.6,0.57-1.23,1.21-1.89c0.64-0.66,1.76-1.56,3.36-2.7
		l-0.11-0.41c-0.28-1.03-0.64-1.7-1.08-1.99s-0.96-0.36-1.59-0.18c-0.47,0.13-0.81,0.36-1.02,0.7c-0.22,0.33-0.28,0.67-0.19,1
		l0.2,0.65c0.1,0.35,0.08,0.64-0.04,0.88c-0.12,0.24-0.33,0.4-0.62,0.47c-0.28,0.08-0.53,0.04-0.76-0.11
		c-0.23-0.15-0.39-0.39-0.49-0.73c-0.18-0.65-0.01-1.33,0.5-2.06c0.51-0.72,1.37-1.25,2.57-1.58c0.92-0.25,1.71-0.3,2.39-0.16
		c0.51,0.11,0.94,0.39,1.28,0.83c0.22,0.29,0.47,0.93,0.75,1.93l0.97,3.51c0.27,0.99,0.46,1.59,0.55,1.8c0.1,0.21,0.2,0.34,0.31,0.4
		c0.11,0.05,0.22,0.06,0.33,0.03c0.12-0.03,0.22-0.09,0.29-0.17c0.13-0.14,0.36-0.5,0.69-1.08l0.17,0.63
		c-0.53,1.36-1.18,2.15-1.95,2.36c-0.37,0.1-0.7,0.05-0.99-0.14S344.75,112.8,344.57,112.18z M344.37,111.45l-1.08-3.94
		c-1.01,0.76-1.66,1.29-1.94,1.57c-0.5,0.5-0.83,0.96-0.99,1.39c-0.16,0.43-0.18,0.86-0.06,1.29c0.15,0.54,0.43,0.95,0.86,1.22
		s0.84,0.35,1.27,0.23C342.99,113.04,343.64,112.46,344.37,111.45z"/>
	<path d="M349.48,100.97l0.64,2.33c0.44-1.79,1.12-2.81,2.03-3.06c0.41-0.11,0.79-0.08,1.13,0.1c0.34,0.18,0.56,0.43,0.65,0.76
		c0.08,0.29,0.05,0.57-0.09,0.83s-0.35,0.42-0.62,0.5c-0.26,0.07-0.59,0.02-0.99-0.15c-0.4-0.17-0.68-0.23-0.84-0.19
		c-0.13,0.04-0.26,0.15-0.38,0.35c-0.25,0.4-0.46,1.01-0.63,1.81l1.36,4.96c0.16,0.57,0.35,0.99,0.57,1.24
		c0.15,0.18,0.37,0.3,0.66,0.37c0.29,0.07,0.66,0.04,1.13-0.09l0.11,0.41l-5.3,1.46l-0.11-0.41c0.53-0.15,0.9-0.34,1.11-0.57
		c0.16-0.17,0.23-0.4,0.24-0.68c0-0.14-0.08-0.51-0.24-1.11l-1.1-4.01c-0.33-1.21-0.55-1.92-0.67-2.13
		c-0.11-0.22-0.25-0.36-0.41-0.43c-0.16-0.07-0.34-0.08-0.53-0.02c-0.23,0.06-0.48,0.19-0.75,0.39l-0.22-0.38l2.78-2.13
		L349.48,100.97z"/>
	<path d="M362.55,107.24c-0.84,1.11-1.37,1.77-1.61,1.97c-0.36,0.3-0.76,0.51-1.22,0.64c-0.71,0.2-1.37,0.11-1.97-0.25
		s-1.01-0.94-1.23-1.74c-0.14-0.5-0.15-0.97-0.02-1.4c0.17-0.6,0.57-1.23,1.21-1.89s1.76-1.56,3.36-2.7l-0.11-0.41
		c-0.28-1.03-0.64-1.7-1.08-1.99c-0.43-0.29-0.96-0.36-1.59-0.18c-0.47,0.13-0.82,0.36-1.02,0.69c-0.22,0.34-0.28,0.67-0.19,1
		l0.2,0.65c0.1,0.35,0.08,0.64-0.04,0.88c-0.12,0.24-0.33,0.39-0.62,0.47c-0.28,0.08-0.53,0.04-0.76-0.11
		c-0.23-0.15-0.39-0.39-0.49-0.73c-0.18-0.65-0.01-1.33,0.5-2.06s1.37-1.25,2.57-1.58c0.92-0.25,1.71-0.31,2.39-0.16
		c0.51,0.11,0.94,0.39,1.29,0.83c0.22,0.29,0.47,0.93,0.75,1.93l0.97,3.51c0.27,0.99,0.46,1.59,0.56,1.8s0.2,0.34,0.31,0.4
		c0.11,0.05,0.22,0.06,0.33,0.03c0.12-0.03,0.22-0.09,0.29-0.17c0.13-0.14,0.36-0.5,0.69-1.08l0.17,0.63
		c-0.53,1.36-1.18,2.15-1.95,2.36c-0.37,0.1-0.7,0.05-0.99-0.14C362.96,108.26,362.72,107.86,362.55,107.24z M362.34,106.51
		l-1.08-3.94c-1.01,0.76-1.66,1.29-1.94,1.57c-0.5,0.5-0.83,0.96-0.99,1.39c-0.16,0.43-0.18,0.86-0.06,1.29
		c0.15,0.54,0.43,0.95,0.86,1.22c0.42,0.27,0.84,0.35,1.27,0.23C360.97,108.1,361.62,107.52,362.34,106.51z"/>
	<path d="M367.84,98.18c0.62-1.67,1.51-2.66,2.67-2.98c1.06-0.29,2.11-0.09,3.15,0.6c1.04,0.69,1.78,1.82,2.21,3.4
		c0.5,1.84,0.3,3.49-0.61,4.94c-0.78,1.25-1.82,2.05-3.1,2.41c-0.6,0.17-1.25,0.22-1.93,0.18c-0.68-0.05-1.41-0.2-2.17-0.46
		l-2.95-10.72c-0.32-1.17-0.55-1.89-0.68-2.15c-0.13-0.25-0.27-0.42-0.42-0.48s-0.31-0.07-0.49-0.02c-0.21,0.06-0.46,0.19-0.74,0.4
		l-0.27-0.35l2.76-2.12l0.51-0.14L367.84,98.18z M368.04,98.9l1.7,6.19c0.49,0.27,0.96,0.45,1.43,0.53
		c0.46,0.08,0.91,0.06,1.34-0.06c0.69-0.19,1.22-0.74,1.61-1.66c0.38-0.92,0.38-2.09-0.02-3.53c-0.36-1.33-0.94-2.26-1.73-2.81
		c-0.79-0.55-1.56-0.72-2.31-0.51c-0.4,0.11-0.77,0.32-1.11,0.63C368.69,97.91,368.39,98.32,368.04,98.9z"/>
	<path d="M381.07,92.29c1.57-0.43,2.99-0.18,4.27,0.75c1.08,0.8,1.81,1.85,2.17,3.17c0.25,0.93,0.29,1.92,0.11,3
		c-0.18,1.07-0.6,1.96-1.25,2.65s-1.45,1.18-2.41,1.44c-1.56,0.43-2.97,0.15-4.23-0.84c-1.06-0.83-1.78-1.9-2.13-3.21
		c-0.26-0.95-0.29-1.96-0.07-3.02s0.64-1.93,1.29-2.59C379.46,92.98,380.21,92.53,381.07,92.29z M380.92,93.12
		c-0.4,0.11-0.77,0.34-1.11,0.69c-0.34,0.35-0.55,0.85-0.63,1.52c-0.08,0.66,0,1.46,0.26,2.4c0.42,1.51,1.07,2.72,1.97,3.65
		c0.9,0.93,1.84,1.26,2.82,0.99c0.73-0.2,1.25-0.67,1.56-1.4c0.31-0.73,0.26-1.83-0.14-3.3c-0.5-1.84-1.3-3.18-2.38-4.01
		C382.53,93.07,381.75,92.9,380.92,93.12z"/>
	<path d="M389.65,84.11l3.77,13.73c0.18,0.65,0.34,1.06,0.5,1.25c0.15,0.18,0.34,0.3,0.57,0.36s0.61,0.01,1.14-0.14l0.11,0.41
		l-5.07,1.39l-0.11-0.41c0.47-0.13,0.79-0.27,0.93-0.41c0.15-0.14,0.24-0.34,0.27-0.6c0.04-0.25-0.04-0.7-0.21-1.34l-2.58-9.4
		c-0.32-1.17-0.54-1.88-0.67-2.13c-0.13-0.25-0.26-0.41-0.41-0.48c-0.14-0.07-0.31-0.07-0.49-0.02c-0.2,0.05-0.43,0.18-0.7,0.39
		l-0.3-0.34l2.74-2.11L389.65,84.11z"/>
	<path d="M395.15,82.6c0.32-0.09,0.62-0.05,0.9,0.11c0.28,0.16,0.47,0.4,0.55,0.72s0.05,0.62-0.11,0.91s-0.4,0.47-0.71,0.56
		s-0.62,0.05-0.91-0.12c-0.29-0.16-0.48-0.4-0.56-0.72s-0.05-0.62,0.11-0.9C394.58,82.88,394.83,82.69,395.15,82.6z M397.58,87.76
		l2.29,8.32c0.18,0.65,0.34,1.07,0.5,1.25c0.15,0.19,0.34,0.31,0.55,0.37c0.21,0.05,0.57,0.01,1.05-0.12l0.11,0.41l-5.03,1.38
		l-0.11-0.41c0.5-0.14,0.83-0.28,0.98-0.43s0.24-0.35,0.28-0.6c0.04-0.25-0.03-0.7-0.2-1.34l-1.1-3.99
		c-0.31-1.12-0.54-1.84-0.7-2.15c-0.12-0.23-0.25-0.37-0.39-0.43c-0.14-0.06-0.31-0.07-0.5-0.01c-0.21,0.06-0.45,0.19-0.72,0.38
		l-0.27-0.36l2.77-2.12L397.58,87.76z"/>
	<path d="M411.07,91.28c0.1,1.44-0.16,2.64-0.77,3.6c-0.61,0.96-1.41,1.57-2.4,1.84c-1.17,0.32-2.33,0.11-3.48-0.64
		c-1.14-0.75-1.95-1.96-2.41-3.64c-0.45-1.63-0.33-3.08,0.36-4.37c0.69-1.28,1.71-2.11,3.07-2.48c1.02-0.28,1.93-0.24,2.73,0.12
		s1.28,0.83,1.44,1.41c0.08,0.29,0.05,0.54-0.09,0.77s-0.37,0.39-0.7,0.48c-0.44,0.12-0.82,0.07-1.12-0.15
		c-0.17-0.12-0.34-0.4-0.5-0.83c-0.16-0.43-0.41-0.73-0.74-0.89c-0.33-0.15-0.72-0.17-1.19-0.04c-0.75,0.21-1.28,0.65-1.59,1.34
		c-0.41,0.91-0.44,1.97-0.11,3.18c0.34,1.24,0.94,2.24,1.81,3.02c0.87,0.78,1.82,1.03,2.85,0.74c0.74-0.2,1.33-0.64,1.78-1.3
		c0.32-0.46,0.55-1.2,0.69-2.22L411.07,91.28z"/>
	<path d="M421.55,81.16c1.57-0.43,2.99-0.18,4.26,0.75c1.09,0.8,1.81,1.85,2.17,3.17c0.25,0.93,0.29,1.92,0.11,3
		c-0.18,1.07-0.6,1.96-1.25,2.65s-1.45,1.18-2.41,1.44c-1.56,0.43-2.97,0.15-4.23-0.84c-1.06-0.83-1.77-1.9-2.13-3.21
		c-0.26-0.95-0.29-1.96-0.07-3.02s0.64-1.93,1.29-2.59S420.7,81.4,421.55,81.16z M421.41,82c-0.4,0.11-0.77,0.34-1.11,0.69
		c-0.34,0.35-0.55,0.85-0.63,1.52c-0.09,0.66,0,1.46,0.26,2.4c0.41,1.51,1.07,2.72,1.97,3.65c0.9,0.93,1.84,1.26,2.82,0.99
		c0.73-0.2,1.25-0.67,1.56-1.4c0.31-0.73,0.26-1.83-0.14-3.3c-0.5-1.84-1.3-3.18-2.38-4.01C423.01,81.94,422.23,81.77,421.41,82z"/>
	<path d="M431.09,78.54l0.64,2.33c0.44-1.79,1.12-2.81,2.03-3.06c0.41-0.11,0.79-0.08,1.13,0.1c0.34,0.18,0.56,0.43,0.65,0.76
		c0.08,0.29,0.05,0.57-0.09,0.83c-0.14,0.26-0.34,0.42-0.62,0.5c-0.26,0.07-0.6,0.02-0.99-0.15c-0.4-0.17-0.68-0.23-0.84-0.19
		c-0.14,0.04-0.26,0.15-0.38,0.35c-0.25,0.4-0.46,1.01-0.63,1.81l1.36,4.96c0.16,0.57,0.35,0.99,0.57,1.24
		c0.15,0.18,0.37,0.3,0.66,0.37c0.29,0.07,0.66,0.04,1.13-0.09l0.11,0.41l-5.3,1.46l-0.11-0.41c0.53-0.14,0.9-0.33,1.11-0.57
		c0.15-0.17,0.23-0.4,0.24-0.68c0-0.14-0.08-0.51-0.24-1.11l-1.1-4.01c-0.33-1.21-0.55-1.92-0.67-2.13
		c-0.11-0.22-0.25-0.36-0.41-0.43c-0.16-0.07-0.34-0.08-0.54-0.02c-0.23,0.06-0.48,0.19-0.74,0.39l-0.22-0.38l2.78-2.13
		L431.09,78.54z"/>
	<path d="M439.18,78.57c0.62-1.67,1.51-2.66,2.67-2.98c1.06-0.29,2.11-0.09,3.15,0.6c1.04,0.69,1.78,1.82,2.21,3.4
		c0.5,1.84,0.3,3.49-0.61,4.94c-0.78,1.25-1.82,2.05-3.11,2.41c-0.6,0.17-1.24,0.22-1.93,0.18c-0.68-0.05-1.41-0.2-2.17-0.46
		l-2.95-10.72c-0.32-1.17-0.55-1.89-0.68-2.15s-0.27-0.42-0.42-0.48s-0.31-0.07-0.49-0.02c-0.21,0.06-0.46,0.19-0.74,0.4l-0.27-0.35
		l2.76-2.12l0.51-0.14L439.18,78.57z M439.38,79.29l1.7,6.19c0.49,0.27,0.96,0.45,1.43,0.53c0.46,0.08,0.91,0.06,1.34-0.06
		c0.69-0.19,1.22-0.74,1.61-1.66c0.38-0.92,0.38-2.09-0.02-3.53c-0.36-1.33-0.94-2.26-1.73-2.81s-1.56-0.72-2.31-0.51
		c-0.4,0.11-0.77,0.32-1.11,0.63C440.02,78.3,439.72,78.71,439.38,79.29z"/>
	<path d="M448.48,67.94c0.32-0.09,0.62-0.05,0.9,0.11c0.28,0.16,0.47,0.4,0.55,0.72s0.05,0.62-0.11,0.91s-0.4,0.47-0.71,0.56
		s-0.62,0.05-0.91-0.12s-0.48-0.4-0.56-0.72s-0.05-0.62,0.11-0.9C447.92,68.21,448.16,68.03,448.48,67.94z M450.91,73.09l2.29,8.32
		c0.18,0.65,0.34,1.07,0.5,1.25c0.15,0.19,0.34,0.31,0.55,0.37s0.57,0.01,1.05-0.12l0.11,0.41l-5.03,1.38l-0.11-0.41
		c0.5-0.14,0.83-0.28,0.98-0.43s0.24-0.34,0.28-0.6c0.04-0.25-0.03-0.7-0.21-1.34l-1.1-3.99c-0.31-1.12-0.54-1.84-0.7-2.15
		c-0.12-0.23-0.25-0.37-0.39-0.43c-0.14-0.06-0.31-0.07-0.5-0.01c-0.21,0.06-0.45,0.18-0.72,0.38l-0.27-0.36l2.77-2.12L450.91,73.09
		z"/>
	<path d="M455.92,68.39l0.93,3.4l2.42-0.66l0.22,0.79l-2.42,0.66l1.84,6.71c0.18,0.67,0.4,1.1,0.66,1.28
		c0.26,0.18,0.54,0.23,0.84,0.15c0.25-0.07,0.47-0.21,0.66-0.43s0.31-0.5,0.35-0.83l0.44-0.12c-0.06,0.81-0.28,1.47-0.66,1.97
		c-0.38,0.5-0.83,0.83-1.34,0.97c-0.35,0.09-0.71,0.09-1.1-0.01c-0.38-0.1-0.7-0.31-0.96-0.62s-0.49-0.84-0.69-1.59l-1.91-6.96
		l-1.64,0.45l-0.1-0.37c0.37-0.28,0.71-0.68,1.04-1.19c0.32-0.51,0.58-1.09,0.77-1.72c0.09-0.33,0.19-0.92,0.29-1.77L455.92,68.39z"
		/>
</g>
<g>
	<path d="M116.42,120.79l3.06,5.74c0.58,1.1,0.97,1.75,1.15,1.97c0.18,0.22,0.36,0.34,0.52,0.38c0.17,0.04,0.32,0.01,0.48-0.07
		c0.21-0.11,0.42-0.3,0.63-0.56l0.34,0.29l-2.21,2.68l-0.46,0.25l-1.07-2.01c-0.34,1.32-0.67,2.2-0.98,2.66s-0.7,0.81-1.17,1.06
		c-0.53,0.28-1.07,0.37-1.63,0.27c-0.55-0.1-1.03-0.35-1.44-0.75c-0.41-0.4-0.85-1.04-1.32-1.93l-2.25-4.23
		c-0.24-0.45-0.45-0.73-0.64-0.85s-0.4-0.18-0.64-0.17c-0.24,0.01-0.6,0.15-1.1,0.42l-0.2-0.38l3.32-1.77l3.38,6.34
		c0.47,0.88,0.93,1.38,1.38,1.49s0.9,0.05,1.33-0.18c0.3-0.16,0.58-0.43,0.86-0.82c0.28-0.39,0.53-0.98,0.77-1.78l-2.86-5.37
		c-0.29-0.54-0.58-0.85-0.88-0.93c-0.3-0.08-0.76,0.03-1.39,0.35l-0.2-0.38L116.42,120.79z"/>
	<path d="M122.39,119.84c0.4-1.93,1.1-3.16,2.11-3.7c0.52-0.28,1.03-0.38,1.54-0.32c0.51,0.06,1.03,0.33,1.57,0.8
		c0.37,0.33,0.79,0.93,1.24,1.78l2.15,4.04c0.32,0.6,0.58,0.98,0.79,1.14c0.17,0.13,0.36,0.2,0.58,0.21
		c0.22,0.01,0.56-0.11,1.01-0.35l0.2,0.37l-4.69,2.49l-0.2-0.37l0.2-0.1c0.44-0.23,0.71-0.47,0.82-0.69s0.12-0.49,0.05-0.79
		c-0.03-0.12-0.19-0.45-0.48-0.99l-2.06-3.88c-0.46-0.86-0.9-1.43-1.33-1.7c-0.43-0.27-0.91-0.26-1.44,0.02
		c-0.82,0.44-1.4,1.32-1.74,2.65l2.66,5c0.34,0.64,0.59,1.02,0.75,1.13c0.2,0.15,0.41,0.22,0.63,0.23c0.22,0,0.59-0.13,1.1-0.41
		l0.2,0.37l-4.69,2.49l-0.2-0.37l0.21-0.11c0.48-0.26,0.74-0.55,0.78-0.89c0.04-0.33-0.13-0.85-0.49-1.54l-1.87-3.52
		c-0.61-1.14-1-1.82-1.18-2.04s-0.35-0.35-0.51-0.38c-0.15-0.03-0.32,0-0.5,0.09c-0.19,0.1-0.4,0.28-0.61,0.52l-0.35-0.29l2.24-2.68
		l0.44-0.24L122.39,119.84z"/>
	<path d="M132.77,114.19c0.24-1.76,0.89-2.93,1.95-3.49c0.97-0.52,2.04-0.55,3.21-0.11c1.17,0.45,2.13,1.39,2.9,2.83
		c0.89,1.68,1.06,3.33,0.49,4.96c-0.49,1.39-1.32,2.4-2.5,3.03c-0.55,0.29-1.17,0.49-1.84,0.6c-0.68,0.1-1.42,0.11-2.22,0.03
		l-5.22-9.82c-0.57-1.08-0.95-1.72-1.13-1.95c-0.18-0.22-0.35-0.35-0.51-0.38c-0.16-0.03-0.32,0-0.49,0.08
		c-0.19,0.1-0.4,0.29-0.64,0.55l-0.34-0.28l2.23-2.67l0.47-0.25L132.77,114.19z M133.12,114.86l3.02,5.67
		c0.54,0.16,1.04,0.22,1.51,0.2c0.47-0.02,0.9-0.14,1.29-0.35c0.63-0.33,1.03-0.99,1.2-1.97c0.17-0.98-0.09-2.12-0.79-3.44
		c-0.65-1.21-1.41-2-2.3-2.37c-0.89-0.36-1.68-0.36-2.37,0c-0.37,0.19-0.68,0.48-0.95,0.86
		C133.53,113.75,133.33,114.21,133.12,114.86z"/>
	<path d="M144.38,105.56c1.43-0.76,2.88-0.83,4.33-0.2c1.23,0.54,2.17,1.41,2.81,2.62c0.45,0.85,0.71,1.81,0.76,2.9
		s-0.16,2.04-0.63,2.86c-0.48,0.82-1.16,1.47-2.03,1.93c-1.43,0.76-2.87,0.79-4.31,0.1c-1.22-0.58-2.15-1.47-2.78-2.66
		c-0.46-0.87-0.71-1.85-0.73-2.94c-0.03-1.09,0.2-2.02,0.69-2.81C142.96,106.58,143.6,105.98,144.38,105.56z M144.42,106.4
		c-0.37,0.19-0.68,0.5-0.93,0.91c-0.25,0.41-0.35,0.95-0.29,1.62c0.06,0.67,0.32,1.43,0.78,2.28c0.73,1.38,1.64,2.42,2.72,3.13
		c1.08,0.71,2.07,0.82,2.97,0.35c0.67-0.36,1.07-0.93,1.21-1.71c0.14-0.78-0.15-1.85-0.86-3.19c-0.9-1.68-1.96-2.81-3.2-3.39
		C145.98,106,145.18,106,144.42,106.4z"/>
	<path d="M158.8,98.25l3.06,5.74c0.58,1.1,0.97,1.75,1.15,1.97c0.18,0.22,0.36,0.34,0.52,0.38c0.17,0.04,0.32,0.01,0.48-0.07
		c0.21-0.11,0.42-0.3,0.63-0.56l0.34,0.29l-2.21,2.68l-0.47,0.25l-1.07-2.01c-0.34,1.32-0.67,2.2-0.98,2.66s-0.7,0.81-1.17,1.06
		c-0.53,0.28-1.07,0.37-1.63,0.28c-0.55-0.1-1.03-0.35-1.44-0.75c-0.41-0.4-0.85-1.04-1.32-1.93l-2.25-4.23
		c-0.24-0.45-0.45-0.73-0.64-0.85c-0.19-0.12-0.4-0.18-0.64-0.17s-0.61,0.15-1.1,0.42l-0.2-0.38l3.32-1.77l3.38,6.34
		c0.47,0.88,0.93,1.38,1.39,1.49c0.45,0.11,0.9,0.05,1.33-0.18c0.3-0.16,0.58-0.43,0.86-0.82c0.28-0.39,0.53-0.98,0.77-1.78
		l-2.86-5.37c-0.29-0.54-0.58-0.85-0.88-0.93c-0.3-0.08-0.76,0.03-1.39,0.35l-0.2-0.38L158.8,98.25z"/>
	<path d="M164.76,97.29c0.4-1.93,1.1-3.16,2.11-3.7c0.52-0.28,1.03-0.38,1.54-0.32c0.51,0.06,1.03,0.33,1.57,0.8
		c0.37,0.33,0.79,0.93,1.24,1.78l2.15,4.04c0.32,0.6,0.58,0.98,0.79,1.14c0.17,0.13,0.36,0.2,0.58,0.21s0.56-0.11,1.01-0.35
		l0.2,0.37l-4.69,2.49l-0.2-0.37l0.2-0.1c0.44-0.23,0.71-0.47,0.82-0.69s0.12-0.49,0.05-0.79c-0.03-0.12-0.19-0.45-0.48-0.99
		l-2.06-3.88c-0.46-0.86-0.9-1.43-1.33-1.7s-0.91-0.26-1.44,0.02c-0.82,0.44-1.4,1.32-1.74,2.65l2.66,5
		c0.34,0.64,0.59,1.02,0.75,1.13c0.2,0.15,0.41,0.22,0.63,0.23s0.59-0.13,1.1-0.41l0.2,0.37l-4.69,2.49l-0.2-0.37l0.21-0.11
		c0.48-0.26,0.74-0.55,0.78-0.89c0.04-0.33-0.12-0.85-0.49-1.54l-1.87-3.52c-0.61-1.14-1-1.82-1.18-2.04
		c-0.18-0.22-0.35-0.35-0.51-0.38c-0.15-0.03-0.32,0-0.5,0.09c-0.19,0.1-0.4,0.28-0.61,0.52l-0.35-0.29l2.24-2.68l0.44-0.24
		L164.76,97.29z"/>
	<path d="M182.84,96.24c-0.21,0.73-0.47,1.32-0.8,1.76c-0.33,0.45-0.75,0.8-1.26,1.08c-1.03,0.55-2.17,0.6-3.4,0.14
		c-1.23-0.45-2.21-1.36-2.93-2.72s-0.96-2.83-0.7-4.41c0.25-1.58,1.05-2.73,2.4-3.45c0.83-0.44,1.67-0.55,2.49-0.3l-0.93-1.75
		c-0.58-1.08-0.96-1.73-1.14-1.96c-0.18-0.22-0.36-0.35-0.51-0.38c-0.16-0.03-0.32,0-0.49,0.09c-0.18,0.1-0.39,0.28-0.63,0.55
		l-0.33-0.29l2.21-2.66l0.47-0.25l5.83,10.96c0.59,1.11,0.98,1.77,1.16,1.99c0.18,0.22,0.36,0.34,0.52,0.38
		c0.17,0.04,0.32,0.01,0.47-0.07c0.19-0.1,0.4-0.29,0.65-0.57l0.31,0.3l-2.19,2.67l-0.48,0.25L182.84,96.24z M182.46,95.52
		l-2.6-4.88c-0.29-0.45-0.64-0.81-1.06-1.08c-0.41-0.28-0.84-0.42-1.29-0.44c-0.45-0.01-0.83,0.06-1.15,0.24
		c-0.61,0.32-1,0.88-1.19,1.68c-0.25,1.05,0,2.27,0.73,3.65c0.74,1.39,1.61,2.3,2.61,2.72c1,0.42,1.88,0.43,2.62,0.03
		C181.77,97.09,182.21,96.46,182.46,95.52z"/>
	<path d="M187.56,76.22l3.69,6.93c0.32-1.25,0.64-2.11,0.96-2.59c0.32-0.48,0.71-0.83,1.15-1.07c0.54-0.29,1.08-0.38,1.62-0.29
		c0.54,0.09,1.08,0.4,1.6,0.94c0.37,0.37,0.86,1.14,1.49,2.32l1.78,3.35c0.32,0.6,0.59,0.98,0.8,1.15c0.16,0.13,0.34,0.2,0.56,0.21
		s0.55-0.1,0.99-0.34l0.2,0.37l-4.66,2.48l-0.2-0.37l0.22-0.12c0.44-0.24,0.71-0.47,0.81-0.69c0.1-0.23,0.12-0.49,0.05-0.79
		c-0.04-0.12-0.2-0.45-0.49-0.99l-1.78-3.35c-0.55-1.03-0.96-1.69-1.24-1.95c-0.28-0.27-0.58-0.42-0.9-0.46s-0.65,0.03-0.98,0.21
		c-0.34,0.18-0.64,0.46-0.91,0.83c-0.27,0.37-0.51,0.97-0.74,1.79l2.67,5.01c0.34,0.65,0.6,1.03,0.75,1.15
		c0.16,0.12,0.36,0.18,0.62,0.18c0.25,0,0.62-0.13,1.1-0.38l0.2,0.37l-4.7,2.5l-0.2-0.37c0.42-0.22,0.72-0.47,0.89-0.73
		c0.1-0.14,0.14-0.33,0.12-0.57c-0.02-0.24-0.19-0.65-0.5-1.25l-4.56-8.58c-0.58-1.08-0.96-1.73-1.14-1.96
		c-0.18-0.22-0.35-0.35-0.51-0.38c-0.16-0.03-0.32,0-0.5,0.09c-0.14,0.08-0.35,0.26-0.61,0.54l-0.34-0.29l2.22-2.67L187.56,76.22z"
		/>
	<path d="M197.62,77.58l4.42-2.35l0.2,0.38l-0.22,0.12c-0.31,0.17-0.51,0.36-0.59,0.57c-0.08,0.22-0.07,0.43,0.03,0.63
		c0.14,0.27,0.46,0.58,0.94,0.94l4.85,3.55l-0.67-6.36c-0.03-0.35-0.12-0.66-0.27-0.93c-0.07-0.12-0.14-0.2-0.22-0.24
		c-0.1-0.05-0.21-0.06-0.36-0.04c-0.14,0.02-0.36,0.1-0.66,0.26l-0.2-0.38l3.08-1.64l0.2,0.38c-0.24,0.16-0.41,0.32-0.5,0.48
		c-0.09,0.16-0.16,0.39-0.21,0.71c-0.01,0.13,0.01,0.46,0.07,0.98l1.17,11.51c0.12,1.12,0,2.07-0.36,2.86
		c-0.35,0.79-0.81,1.33-1.37,1.63c-0.41,0.22-0.8,0.28-1.19,0.18c-0.39-0.1-0.66-0.29-0.82-0.6c-0.15-0.29-0.18-0.57-0.09-0.85
		c0.1-0.28,0.31-0.5,0.64-0.68c0.23-0.12,0.58-0.21,1.05-0.27c0.33-0.04,0.53-0.08,0.6-0.12c0.21-0.11,0.38-0.34,0.51-0.68
		c0.13-0.34,0.16-0.89,0.08-1.63l-0.2-2l-7.21-5.34c-0.22-0.16-0.52-0.34-0.92-0.53c-0.3-0.15-0.53-0.24-0.68-0.26
		c-0.22-0.03-0.52,0.01-0.92,0.12L197.62,77.58z"/>
	<path d="M208.57,72.96l2.29-2.73l0.39-0.21l1.18,2.21c0.04-1.09,0.23-1.94,0.54-2.54c0.31-0.6,0.75-1.04,1.29-1.33
		c0.95-0.51,1.94-0.56,2.97-0.15c1.26,0.5,2.29,1.47,3.06,2.94c0.87,1.63,1.12,3.24,0.75,4.8c-0.31,1.29-1.05,2.24-2.22,2.87
		c-0.51,0.27-0.99,0.43-1.44,0.49c-0.33,0.04-0.75,0-1.26-0.13l1.54,2.89c0.34,0.65,0.6,1.04,0.78,1.17c0.17,0.13,0.39,0.2,0.64,0.2
		c0.25,0,0.64-0.14,1.15-0.42l0.2,0.38l-4.96,2.64l-0.2-0.38l0.26-0.14c0.38-0.19,0.67-0.44,0.86-0.73
		c0.09-0.15,0.13-0.32,0.11-0.53c-0.02-0.21-0.21-0.66-0.58-1.35l-4.77-8.96c-0.33-0.61-0.56-0.99-0.7-1.13s-0.3-0.21-0.46-0.23
		s-0.35,0.03-0.56,0.14c-0.17,0.09-0.35,0.25-0.55,0.48L208.57,72.96z M212.76,72.85l1.88,3.54c0.41,0.77,0.71,1.25,0.9,1.46
		c0.31,0.35,0.73,0.57,1.27,0.68s1.09,0,1.66-0.3c0.69-0.37,1.11-0.93,1.25-1.7c0.18-1-0.06-2.14-0.74-3.42
		c-0.77-1.45-1.68-2.39-2.73-2.83c-0.73-0.3-1.39-0.29-2,0.03c-0.33,0.18-0.61,0.43-0.85,0.77C213.21,71.33,213,71.92,212.76,72.85z
		"/>
	<path d="M222.84,68.74c0.74,1.41,1.67,2.33,2.79,2.77c1.12,0.43,2.14,0.4,3.07-0.09c0.62-0.33,1.07-0.79,1.35-1.37
		c0.28-0.59,0.35-1.37,0.22-2.37l0.43,0.04c0.36,1.02,0.4,2.11,0.11,3.25c-0.28,1.15-0.95,2-2,2.56c-1.14,0.61-2.35,0.68-3.63,0.23
		c-1.28-0.46-2.32-1.43-3.12-2.93c-0.86-1.62-1.12-3.11-0.77-4.46c0.35-1.35,1.15-2.36,2.41-3.03c1.06-0.57,2.12-0.68,3.18-0.34
		c1.05,0.34,1.89,1.09,2.52,2.26L222.84,68.74z M222.52,68.14l4.39-2.33c-0.36-0.59-0.66-0.98-0.9-1.17
		c-0.38-0.29-0.8-0.46-1.25-0.5s-0.87,0.04-1.25,0.24c-0.57,0.3-0.97,0.8-1.18,1.48C222.11,66.55,222.17,67.31,222.52,68.14z"/>
	<path d="M231.37,59.26l1.13,2.13c0.04-1.84,0.47-2.99,1.31-3.43c0.38-0.2,0.75-0.25,1.13-0.15s0.64,0.3,0.8,0.6
		c0.14,0.27,0.17,0.54,0.09,0.83c-0.08,0.28-0.24,0.49-0.49,0.62c-0.24,0.13-0.58,0.15-1,0.08c-0.43-0.08-0.71-0.08-0.86,0
		c-0.12,0.07-0.22,0.21-0.29,0.42c-0.16,0.45-0.23,1.08-0.22,1.91l2.42,4.54c0.28,0.52,0.56,0.89,0.83,1.08
		c0.19,0.14,0.43,0.21,0.72,0.21c0.29,0,0.65-0.11,1.08-0.34l0.2,0.37l-4.85,2.58l-0.2-0.37c0.48-0.26,0.8-0.52,0.96-0.8
		c0.11-0.2,0.14-0.44,0.08-0.72c-0.03-0.14-0.19-0.48-0.48-1.03l-1.95-3.67c-0.59-1.1-0.96-1.75-1.12-1.93
		c-0.16-0.19-0.32-0.3-0.49-0.33s-0.35,0-0.53,0.09c-0.21,0.11-0.43,0.29-0.64,0.54l-0.3-0.32l2.25-2.68L231.37,59.26z"/>
	<path d="M239.27,57.52c0.24-1.76,0.89-2.93,1.95-3.49c0.97-0.52,2.04-0.55,3.21-0.11c1.17,0.45,2.13,1.39,2.9,2.83
		c0.9,1.68,1.06,3.33,0.49,4.96c-0.49,1.39-1.32,2.4-2.5,3.03c-0.55,0.29-1.17,0.49-1.84,0.59c-0.67,0.1-1.42,0.11-2.22,0.03
		l-5.22-9.82c-0.57-1.08-0.95-1.72-1.13-1.94c-0.18-0.22-0.35-0.35-0.51-0.38c-0.16-0.03-0.32,0-0.49,0.09
		c-0.19,0.1-0.41,0.29-0.64,0.55l-0.34-0.28l2.23-2.67l0.46-0.25L239.27,57.52z M239.62,58.18l3.02,5.67
		c0.54,0.16,1.04,0.22,1.51,0.2c0.47-0.02,0.9-0.14,1.29-0.35c0.63-0.33,1.03-0.99,1.2-1.97c0.17-0.98-0.09-2.12-0.79-3.44
		c-0.65-1.21-1.41-2-2.3-2.37c-0.89-0.36-1.68-0.36-2.37,0.01c-0.37,0.19-0.68,0.48-0.95,0.86
		C240.04,57.07,239.83,57.54,239.62,58.18z"/>
	<path d="M250.88,48.88c1.43-0.76,2.88-0.83,4.33-0.2c1.23,0.54,2.17,1.41,2.81,2.62c0.45,0.85,0.71,1.82,0.76,2.9
		c0.06,1.09-0.16,2.04-0.63,2.86s-1.16,1.46-2.03,1.93c-1.43,0.76-2.87,0.79-4.31,0.1c-1.22-0.58-2.15-1.47-2.78-2.66
		c-0.46-0.87-0.71-1.85-0.73-2.94c-0.03-1.09,0.2-2.02,0.69-2.81C249.46,49.9,250.1,49.3,250.88,48.88z M250.92,49.72
		c-0.37,0.19-0.67,0.5-0.93,0.91c-0.25,0.41-0.35,0.95-0.29,1.62s0.32,1.43,0.78,2.28c0.73,1.38,1.64,2.42,2.72,3.13
		c1.08,0.71,2.07,0.82,2.97,0.35c0.67-0.36,1.07-0.93,1.21-1.71c0.14-0.78-0.15-1.85-0.86-3.19c-0.9-1.68-1.96-2.81-3.2-3.39
		C252.48,49.32,251.68,49.32,250.92,49.72z"/>
	<path d="M257.46,39.02l6.69,12.57c0.32,0.59,0.57,0.96,0.76,1.11c0.19,0.15,0.4,0.22,0.63,0.23s0.59-0.12,1.08-0.38l0.2,0.37
		l-4.65,2.47l-0.2-0.37c0.44-0.23,0.71-0.43,0.82-0.61c0.11-0.17,0.16-0.39,0.14-0.64c-0.02-0.25-0.19-0.67-0.5-1.26l-4.58-8.61
		c-0.57-1.07-0.94-1.71-1.12-1.93s-0.35-0.35-0.5-0.38c-0.15-0.03-0.31-0.01-0.48,0.08c-0.18,0.1-0.38,0.27-0.59,0.53l-0.37-0.27
		l2.21-2.66L257.46,39.02z"/>
	<path d="M262.5,36.34c0.29-0.15,0.59-0.18,0.9-0.09c0.31,0.09,0.54,0.29,0.7,0.58s0.18,0.59,0.09,0.91
		c-0.09,0.32-0.28,0.55-0.57,0.7s-0.59,0.18-0.91,0.09s-0.55-0.29-0.71-0.58c-0.15-0.29-0.18-0.59-0.09-0.9
		C262.01,36.73,262.21,36.5,262.5,36.34z M266,40.84l4.05,7.61c0.31,0.59,0.57,0.97,0.76,1.12c0.19,0.15,0.4,0.23,0.62,0.24
		c0.22,0.01,0.55-0.11,1-0.35l0.2,0.37l-4.6,2.45l-0.2-0.37c0.46-0.25,0.75-0.46,0.86-0.63c0.11-0.17,0.16-0.39,0.14-0.65
		c-0.02-0.26-0.18-0.68-0.49-1.26l-1.94-3.65c-0.55-1.03-0.93-1.68-1.16-1.95c-0.17-0.19-0.32-0.31-0.47-0.34
		c-0.15-0.03-0.31,0-0.49,0.1c-0.19,0.1-0.4,0.28-0.62,0.53l-0.34-0.3l2.24-2.68L266,40.84z"/>
	<path d="M279.94,41.32c0.41,1.38,0.42,2.61,0.03,3.68s-1.03,1.84-1.94,2.32c-1.08,0.57-2.25,0.62-3.54,0.14s-2.33-1.49-3.15-3.02
		c-0.79-1.49-0.99-2.94-0.6-4.34c0.39-1.4,1.21-2.43,2.45-3.09c0.93-0.5,1.83-0.66,2.69-0.48c0.86,0.17,1.44,0.53,1.72,1.06
		c0.14,0.26,0.17,0.52,0.08,0.77c-0.08,0.25-0.28,0.46-0.58,0.62c-0.41,0.22-0.78,0.25-1.13,0.1c-0.2-0.08-0.42-0.32-0.67-0.7
		c-0.25-0.39-0.56-0.62-0.91-0.71c-0.35-0.08-0.74,0-1.17,0.22c-0.69,0.37-1.11,0.92-1.26,1.65c-0.2,0.97,0,2.02,0.59,3.13
		c0.6,1.13,1.41,1.98,2.43,2.55c1.02,0.57,2,0.6,2.94,0.1c0.68-0.36,1.16-0.91,1.45-1.66c0.21-0.52,0.27-1.29,0.19-2.32
		L279.94,41.32z"/>
	<path d="M287.95,29.15c1.43-0.76,2.88-0.83,4.33-0.2c1.23,0.54,2.17,1.41,2.81,2.62c0.45,0.85,0.71,1.81,0.76,2.9
		s-0.16,2.04-0.63,2.86c-0.48,0.82-1.16,1.46-2.03,1.93c-1.43,0.76-2.87,0.79-4.31,0.1c-1.22-0.58-2.15-1.47-2.78-2.66
		c-0.46-0.87-0.71-1.85-0.73-2.94c-0.03-1.09,0.2-2.02,0.69-2.81C286.53,30.17,287.16,29.57,287.95,29.15z M287.99,30
		c-0.37,0.19-0.67,0.5-0.93,0.91c-0.25,0.41-0.35,0.95-0.29,1.62s0.32,1.43,0.78,2.28c0.73,1.38,1.64,2.42,2.72,3.13
		c1.08,0.71,2.07,0.82,2.97,0.35c0.67-0.36,1.07-0.93,1.21-1.71c0.14-0.78-0.15-1.85-0.86-3.19c-0.9-1.68-1.96-2.81-3.2-3.39
		C289.55,29.59,288.75,29.59,287.99,30z"/>
	<path d="M296.68,24.51l1.13,2.13c0.04-1.84,0.47-2.99,1.31-3.43c0.38-0.2,0.75-0.25,1.13-0.15s0.64,0.3,0.8,0.6
		c0.14,0.27,0.17,0.54,0.09,0.83c-0.08,0.28-0.24,0.49-0.49,0.62c-0.24,0.13-0.58,0.15-1,0.08s-0.71-0.08-0.86,0
		c-0.12,0.07-0.22,0.21-0.29,0.42c-0.16,0.45-0.23,1.08-0.22,1.91l2.42,4.54c0.28,0.52,0.56,0.89,0.83,1.09
		c0.19,0.14,0.43,0.21,0.72,0.21c0.29,0,0.65-0.11,1.08-0.34l0.2,0.37l-4.85,2.58l-0.2-0.37c0.48-0.26,0.8-0.52,0.95-0.8
		c0.11-0.2,0.14-0.44,0.08-0.72c-0.03-0.14-0.19-0.48-0.48-1.03l-1.95-3.67c-0.59-1.1-0.96-1.75-1.12-1.94
		c-0.16-0.19-0.32-0.3-0.49-0.33c-0.17-0.03-0.35,0-0.53,0.09c-0.21,0.11-0.43,0.29-0.64,0.54l-0.3-0.32l2.25-2.68L296.68,24.51z"/>
	<path d="M304.58,22.76c0.24-1.76,0.89-2.93,1.95-3.49c0.97-0.52,2.04-0.55,3.21-0.11c1.17,0.45,2.13,1.39,2.9,2.83
		c0.9,1.68,1.06,3.34,0.49,4.96c-0.49,1.39-1.32,2.4-2.5,3.03c-0.55,0.29-1.17,0.49-1.84,0.59c-0.67,0.1-1.42,0.11-2.22,0.03
		l-5.22-9.82c-0.57-1.08-0.95-1.72-1.13-1.95c-0.18-0.22-0.35-0.35-0.51-0.38s-0.32,0-0.49,0.09c-0.19,0.1-0.41,0.29-0.64,0.55
		l-0.34-0.28l2.23-2.67l0.47-0.25L304.58,22.76z M304.93,23.42l3.02,5.67c0.54,0.16,1.04,0.22,1.51,0.2
		c0.47-0.02,0.9-0.14,1.29-0.35c0.63-0.33,1.03-0.99,1.2-1.97c0.17-0.98-0.09-2.12-0.79-3.44c-0.65-1.21-1.41-2-2.3-2.37
		c-0.89-0.36-1.68-0.36-2.37,0c-0.37,0.19-0.68,0.48-0.95,0.86C305.34,22.32,305.14,22.78,304.93,23.42z"/>
	<path d="M311.33,10.35c0.29-0.15,0.59-0.18,0.9-0.09c0.31,0.09,0.54,0.29,0.7,0.58c0.15,0.29,0.18,0.59,0.09,0.91
		s-0.29,0.55-0.57,0.7c-0.29,0.15-0.59,0.18-0.91,0.09c-0.32-0.1-0.55-0.29-0.71-0.58c-0.15-0.29-0.18-0.59-0.09-0.9
		C310.84,10.75,311.03,10.51,311.33,10.35z M314.83,14.85l4.05,7.61c0.32,0.59,0.57,0.97,0.76,1.12c0.19,0.15,0.4,0.23,0.62,0.24
		c0.22,0.01,0.55-0.11,1-0.35l0.2,0.37l-4.6,2.45l-0.2-0.37c0.46-0.25,0.75-0.46,0.86-0.63c0.11-0.17,0.16-0.39,0.14-0.65
		c-0.02-0.26-0.18-0.68-0.49-1.26l-1.94-3.65c-0.55-1.03-0.93-1.68-1.16-1.95c-0.17-0.19-0.32-0.31-0.47-0.34
		c-0.15-0.03-0.31,0-0.49,0.1c-0.19,0.1-0.4,0.28-0.62,0.53l-0.34-0.3l2.24-2.68L314.83,14.85z"/>
	<path d="M318.69,9.16l1.66,3.11l2.21-1.18l0.38,0.72L320.73,13l3.27,6.15c0.33,0.61,0.63,0.98,0.92,1.1
		c0.29,0.12,0.57,0.11,0.85-0.04c0.23-0.12,0.41-0.31,0.55-0.56c0.14-0.26,0.19-0.55,0.16-0.89l0.4-0.21
		c0.12,0.8,0.05,1.5-0.21,2.07c-0.26,0.58-0.62,0.99-1.09,1.24c-0.32,0.17-0.67,0.25-1.07,0.23c-0.4-0.01-0.75-0.15-1.08-0.4
		c-0.32-0.25-0.66-0.72-1.02-1.4l-3.39-6.37l-1.5,0.8l-0.18-0.34c0.3-0.35,0.55-0.82,0.75-1.39c0.2-0.57,0.33-1.19,0.37-1.85
		c0.02-0.35-0.01-0.94-0.1-1.79L318.69,9.16z"/>
</g>
<g>
</g>
<g>
</g>
<g>
</g>
<g>
</g>
<g>
</g>
<g>
</g>
</svg>
